<svg width="681" height="159" viewBox="0 0 681 159" fill="none" xmlns="http://www.w3.org/2000/svg">
<path d="M0.7 155H-0.761452V156.461H0.7V155ZM0.7 3.79999V2.33854H-0.761452V3.79999H0.7ZM26.32 3.79999L27.5408 2.99656L27.1077 2.33854H26.32V3.79999ZM96.46 110.375L95.2392 111.178L97.9215 115.254V110.375H96.46ZM96.46 3.79999V2.33854H94.9986V3.79999H96.46ZM122.08 3.79999H123.541V2.33854H122.08V3.79999ZM122.08 155V156.461H123.541V155H122.08ZM96.46 155L95.2392 155.803L95.6723 156.461H96.46V155ZM26.32 48.425L27.5408 47.6216L24.8585 43.546V48.425H26.32ZM26.32 155V156.461H27.7815V155H26.32ZM2.16145 155V3.79999H-0.761452V155H2.16145ZM0.7 5.26145H26.32V2.33854H0.7V5.26145ZM25.0992 4.60343L95.2392 111.178L97.6808 109.572L27.5408 2.99656L25.0992 4.60343ZM97.9215 110.375V3.79999H94.9986V110.375H97.9215ZM96.46 5.26145H122.08V2.33854H96.46V5.26145ZM120.619 3.79999V155H123.541V3.79999H120.619ZM122.08 153.539H96.46V156.461H122.08V153.539ZM97.6808 154.197L27.5408 47.6216L25.0992 49.2284L95.2392 155.803L97.6808 154.197ZM24.8585 48.425V155H27.7815V48.425H24.8585ZM26.32 153.539H0.7V156.461H26.32V153.539ZM176.527 148.28L175.76 149.524L175.766 149.527L176.527 148.28ZM151.642 120.56L150.328 121.198L150.331 121.204L151.642 120.56ZM151.642 38.24L150.331 37.5957L150.328 37.602L151.642 38.24ZM176.527 10.625L177.289 11.8724L177.295 11.8688L176.527 10.625ZM254.227 10.625L253.46 11.8688L253.47 11.8746L254.227 10.625ZM279.112 38.24L277.798 38.878L277.801 38.8842L279.112 38.24ZM279.112 120.56L277.801 119.916L277.798 119.922L279.112 120.56ZM254.227 148.28L254.989 149.527L254.991 149.526L254.227 148.28ZM215.377 134.315L215.357 135.776L215.367 135.776L215.377 134.315ZM240.682 127.595L239.869 126.381L239.863 126.385L240.682 127.595ZM255.907 108.38L254.558 107.82L254.554 107.829L255.907 108.38ZM255.907 50.63L254.555 51.1847L254.558 51.1917L254.561 51.1987L255.907 50.63ZM240.682 31.52L239.863 32.7302L239.869 32.7341L240.682 31.52ZM215.377 24.485L215.398 23.0236L215.388 23.0236L215.377 24.485ZM190.072 31.205L190.892 32.4152L190.892 32.4152L190.072 31.205ZM174.847 50.42L173.498 49.8595L173.494 49.8693L174.847 50.42ZM174.847 108.275L173.495 108.83L173.497 108.834L174.847 108.275ZM189.967 127.28L189.148 128.49L189.154 128.494L189.967 127.28ZM215.377 156.689C200.473 156.689 187.798 153.447 177.289 147.033L175.766 149.527C186.817 156.273 200.042 159.611 215.377 159.611V156.689ZM177.295 147.036C166.759 140.537 158.648 131.509 152.954 119.916L150.331 121.204C156.257 133.271 164.736 142.723 175.76 149.524L177.295 147.036ZM152.957 119.922C147.33 108.325 144.494 94.83 144.494 79.4H141.571C141.571 95.19 144.475 109.135 150.328 121.198L152.957 119.922ZM144.494 79.4C144.494 63.97 147.33 50.4753 152.957 38.878L150.328 37.602C144.475 49.6647 141.571 63.61 141.571 79.4H144.494ZM152.954 38.8842C158.647 27.2921 166.757 18.3013 177.289 11.8724L175.766 9.37756C164.738 16.1087 156.257 25.5279 150.331 37.5957L152.954 38.8842ZM177.295 11.8688C187.803 5.38655 200.475 2.11145 215.377 2.11145V-0.811455C200.039 -0.811455 186.812 2.56344 175.76 9.38116L177.295 11.8688ZM215.377 2.11145C230.279 2.11145 242.952 5.38655 253.46 11.8688L254.995 9.38116C243.943 2.56344 230.715 -0.811455 215.377 -0.811455V2.11145ZM253.47 11.8746C264.07 18.3032 272.176 27.2916 277.798 38.878L280.427 37.602C274.569 25.5284 266.085 16.1068 254.985 9.37537L253.47 11.8746ZM277.801 38.8842C283.496 50.48 286.366 63.9725 286.366 79.4H289.289C289.289 63.6075 286.349 49.66 280.424 37.5957L277.801 38.8842ZM286.366 79.4C286.366 94.8275 283.496 108.32 277.801 119.916L280.424 121.204C286.349 109.14 289.289 95.1925 289.289 79.4H286.366ZM277.798 119.922C272.175 131.51 264.067 140.535 253.464 147.034L254.991 149.526C266.087 142.725 274.57 133.27 280.427 121.198L277.798 119.922ZM253.466 147.033C242.957 153.447 230.282 156.689 215.377 156.689V159.611C230.713 159.611 243.938 156.273 254.989 149.527L253.466 147.033ZM215.367 135.776C225.738 135.848 234.482 133.558 241.502 128.805L239.863 126.385C233.443 130.732 225.316 132.922 215.388 132.854L215.367 135.776ZM241.496 128.809C248.55 124.082 253.802 117.435 257.261 108.931L254.554 107.829C251.293 115.845 246.395 122.008 239.869 126.381L241.496 128.809ZM257.257 108.94C260.776 100.466 262.514 90.6082 262.514 79.4H259.591C259.591 90.3118 257.899 99.7738 254.558 107.82L257.257 108.94ZM262.514 79.4C262.514 68.1927 260.776 58.4008 257.254 50.0613L254.561 51.1987C257.898 59.0992 259.591 68.4873 259.591 79.4H262.514ZM257.26 50.0753C253.799 41.6403 248.547 35.0309 241.496 30.3059L239.869 32.7341C246.398 37.1091 251.296 43.2397 254.555 51.1847L257.26 50.0753ZM241.502 30.3098C234.493 25.564 225.761 23.1666 215.398 23.0237L215.357 25.9463C225.294 26.0834 233.432 28.3759 239.863 32.7302L241.502 30.3098ZM215.388 23.0236C205.016 22.9521 196.273 25.2418 189.253 29.9948L190.892 32.4152C197.312 28.0682 205.438 25.8779 215.367 25.9464L215.388 23.0236ZM189.253 29.9948C182.273 34.7211 177.026 41.3638 173.498 49.8595L176.197 50.9805C179.529 42.9562 184.432 36.7889 190.892 32.4152L189.253 29.9948ZM173.494 49.8693C170.048 58.3407 168.346 68.1951 168.346 79.4H171.269C171.269 68.4849 172.927 59.0193 176.201 50.9707L173.494 49.8693ZM168.346 79.4C168.346 90.6044 170.048 100.426 173.495 108.83L176.2 107.72C172.927 99.7442 171.269 90.3155 171.269 79.4H168.346ZM173.497 108.834C176.957 117.195 182.171 123.766 189.148 128.49L190.787 126.07C184.323 121.694 179.458 115.595 176.198 107.716L173.497 108.834ZM189.154 128.494C196.23 133.236 204.993 135.633 215.357 135.776L215.398 132.854C205.462 132.717 197.285 130.424 190.781 126.066L189.154 128.494ZM340.956 155H339.494V156.461H340.956V155ZM340.956 27.53H342.417V26.0685H340.956V27.53ZM292.026 27.53H290.564V28.9914H292.026V27.53ZM292.026 3.79999V2.33854H290.564V3.79999H292.026ZM415.191 3.79999H416.652V2.33854H415.191V3.79999ZM415.191 27.53V28.9914H416.652V27.53H415.191ZM366.261 27.53V26.0685H364.799V27.53H366.261ZM366.261 155V156.461H367.722V155H366.261ZM342.417 155V27.53H339.494V155H342.417ZM340.956 26.0685H292.026V28.9914H340.956V26.0685ZM293.487 27.53V3.79999H290.564V27.53H293.487ZM292.026 5.26145H415.191V2.33854H292.026V5.26145ZM413.729 3.79999V27.53H416.652V3.79999H413.729ZM415.191 26.0685H366.261V28.9914H415.191V26.0685ZM364.799 27.53V155H367.722V27.53H364.799ZM366.261 153.539H340.956V156.461H366.261V153.539ZM417.378 155L415.984 154.561L415.385 156.461H417.378V155ZM465.048 3.79999V2.33854H463.976L463.654 3.36055L465.048 3.79999ZM502.113 3.79999L503.507 3.36055L503.184 2.33854H502.113V3.79999ZM549.783 155V156.461H551.776L551.177 154.561L549.783 155ZM523.743 155L522.35 155.444L522.675 156.461H523.743V155ZM480.483 19.34V17.8785H478.483L479.09 19.784L480.483 19.34ZM486.153 19.34L487.547 19.7791L488.145 17.8785H486.153V19.34ZM443.418 155V156.461H444.49L444.812 155.439L443.418 155ZM443.943 122.24H442.481V123.701H443.943V122.24ZM443.943 98.615V97.1535H442.481V98.615H443.943ZM523.323 98.615H524.784V97.1535H523.323V98.615ZM523.323 122.24V123.701H524.784V122.24H523.323ZM418.772 155.439L466.442 4.23943L463.654 3.36055L415.984 154.561L418.772 155.439ZM465.048 5.26145H502.113V2.33854H465.048V5.26145ZM500.719 4.23943L548.389 155.439L551.177 154.561L503.507 3.36055L500.719 4.23943ZM549.783 153.539H523.743V156.461H549.783V153.539ZM525.135 154.556L481.875 18.896L479.09 19.784L522.35 155.444L525.135 154.556ZM480.483 20.8014H486.153V17.8785H480.483V20.8014ZM484.759 18.9009L442.024 154.561L444.812 155.439L487.547 19.7791L484.759 18.9009ZM443.418 153.539H417.378V156.461H443.418V153.539ZM445.404 122.24V98.615H442.481V122.24H445.404ZM443.943 100.076H523.323V97.1535H443.943V100.076ZM521.861 98.615V122.24H524.784V98.615H521.861ZM523.323 120.779H443.943V123.701H523.323V120.779ZM568.766 155H567.305V156.461H568.766V155ZM568.766 3.79999V2.33854H567.305V3.79999H568.766ZM653.816 9.995L653.034 11.2291L653.041 11.2339L653.049 11.2387L653.816 9.995ZM668.411 25.64L667.101 26.2878L667.107 26.2993L668.411 25.64ZM667.256 66.59L666.052 65.7626L666.045 65.7726L667.256 66.59ZM651.191 78.35H649.73V80.3123L651.61 79.7502L651.191 78.35ZM651.191 73.1L651.516 71.6751L649.73 71.2679V73.1H651.191ZM672.821 86.645L671.632 87.4945L671.638 87.5024L672.821 86.645ZM675.131 133.58L673.83 132.916L673.83 132.916L675.131 133.58ZM659.801 149.33L659.091 148.053L659.085 148.056L659.801 149.33ZM594.386 131.165H592.925V132.626H594.386V131.165ZM643.526 128.54L644.18 129.847L644.19 129.842L644.201 129.837L643.526 128.54ZM651.716 120.98L650.473 120.213L650.468 120.22L651.716 120.98ZM652.136 98.405L650.852 99.1029L650.852 99.1029L652.136 98.405ZM644.471 90.74L643.735 92.0024L643.745 92.0081L643.755 92.0138L644.471 90.74ZM594.386 87.8V86.3385H592.925V87.8H594.386ZM594.386 64.175H592.925V65.6364H594.386V64.175ZM644.996 55.88L643.752 55.114L643.752 55.1141L644.996 55.88ZM642.476 32.675L643.531 31.6629L643.531 31.6629L642.476 32.675ZM594.386 27.425V25.9635H592.925V27.425H594.386ZM570.228 155V3.79999H567.305V155H570.228ZM568.766 5.26145H628.721V2.33854H568.766V5.26145ZM628.721 5.26145C638.752 5.26145 646.822 7.28866 653.034 11.2291L654.599 8.76093C647.79 4.44133 639.13 2.33854 628.721 2.33854V5.26145ZM653.049 11.2387C659.417 15.168 664.083 20.1849 667.101 26.2878L669.721 24.9922C666.439 18.3551 661.376 12.942 654.584 8.75125L653.049 11.2387ZM667.107 26.2993C670.229 32.4757 671.78 38.8308 671.78 45.38H674.703C674.703 38.3492 673.034 31.5443 669.716 24.9807L667.107 26.2993ZM671.78 45.38C671.78 53.4696 669.846 60.2378 666.052 65.7627L668.461 67.4173C672.647 61.3222 674.703 53.9504 674.703 45.38H671.78ZM666.045 65.7726C662.316 71.2991 657.243 75.0154 650.773 76.9498L651.61 79.7502C658.72 77.6246 664.357 73.5009 668.468 67.4074L666.045 65.7726ZM652.653 78.35V73.1H649.73V78.35H652.653ZM650.867 74.5249C660.096 76.6288 666.973 80.9711 671.632 87.4944L674.011 85.7955C668.87 78.5989 661.326 73.9112 651.516 71.6751L650.867 74.5249ZM671.638 87.5024C676.421 94.1044 678.815 101.607 678.815 110.06H681.738C681.738 101.013 679.162 92.9056 674.005 85.7876L671.638 87.5024ZM678.815 110.06C678.815 118.832 677.137 126.437 673.83 132.916L676.433 134.244C679.986 127.283 681.738 119.208 681.738 110.06H678.815ZM673.83 132.916C670.536 139.369 665.635 144.41 659.091 148.053L660.512 150.607C667.548 146.69 672.867 141.231 676.433 134.244L673.83 132.916ZM659.085 148.056C652.638 151.683 644.571 153.539 634.811 153.539V156.461C644.932 156.461 653.525 154.537 660.518 150.604L659.085 148.056ZM634.811 153.539H568.766V156.461H634.811V153.539ZM594.386 132.626H631.661V129.704H594.386V132.626ZM631.661 132.626C636.269 132.626 640.453 131.711 644.18 129.847L642.873 127.233C639.6 128.869 635.874 129.704 631.661 129.704V132.626ZM644.201 129.837C647.926 127.899 650.859 125.199 652.965 121.74L650.468 120.22C648.653 123.201 646.127 125.541 642.852 127.243L644.201 129.837ZM652.96 121.747C655.154 118.192 656.223 114.032 656.223 109.325H653.3C653.3 113.578 652.339 117.188 650.473 120.213L652.96 121.747ZM656.223 109.325C656.223 105.048 655.299 101.164 653.42 97.7071L650.852 99.1029C652.474 102.086 653.3 105.482 653.3 109.325H656.223ZM653.42 97.7071C651.532 94.2328 648.774 91.4837 645.188 89.4662L643.755 92.0138C646.888 93.7763 649.241 96.1372 650.852 99.1029L653.42 97.7071ZM645.208 89.4776C641.582 87.3628 637.292 86.3385 632.396 86.3385V89.2614C636.881 89.2614 640.64 90.1972 643.735 92.0024L645.208 89.4776ZM632.396 86.3385H594.386V89.2614H632.396V86.3385ZM592.925 87.8V131.165H595.848V87.8H592.925ZM594.386 65.6364H628.406V62.7135H594.386V65.6364ZM628.406 65.6364C632.237 65.6364 635.716 64.8987 638.812 63.3885L637.531 60.7615C634.886 62.0513 631.856 62.7135 628.406 62.7135V65.6364ZM638.812 63.3885C641.932 61.8665 644.416 59.6111 646.241 56.6459L643.752 55.1141C642.216 57.6089 640.15 59.4835 637.531 60.7615L638.812 63.3885ZM646.241 56.6459C648.094 53.6353 648.978 49.9946 648.978 45.8H646.055C646.055 49.5854 645.259 52.6647 643.752 55.114L646.241 56.6459ZM648.978 45.8C648.978 40.2067 647.175 35.4586 643.531 31.6629L641.422 33.6871C644.498 36.8914 646.055 40.8933 646.055 45.8H648.978ZM643.531 31.6629C639.832 27.8097 634.722 25.9635 628.406 25.9635V28.8864C634.131 28.8864 638.401 30.5403 641.422 33.6871L643.531 31.6629ZM628.406 25.9635H594.386V28.8864H628.406V25.9635ZM592.925 27.425V64.175H595.848V27.425H592.925Z" fill="#8B8B8B"/>
</svg>
