<svg width="81" height="17" viewBox="0 0 81 17" fill="none" xmlns="http://www.w3.org/2000/svg">
    <path d="M3.75394 0.355225L9.11921 8.55315V0.355225H13.357V15.8224H9.6031L4.23784 7.60205V15.8224H0V0.355225H3.75394Z" fill="white"/>
    <path d="M33.0531 8.08809C33.0531 12.5515 29.2118 16.1537 24.752 16.1537C20.2922 16.1537 16.4285 12.549 16.4285 8.08809C16.4285 3.62716 20.2922 0 24.752 0C29.2118 0 33.0531 3.62466 33.0531 8.08809ZM28.9923 8.08809C28.9923 5.74654 27.0941 3.84684 24.7545 3.84684C22.4148 3.84684 20.5141 5.74404 20.5141 8.08809C20.5141 10.4296 22.4123 12.3094 24.752 12.3094C27.0917 12.3094 28.9923 10.4296 28.9923 8.08809Z" fill="white"/>
    <path d="M48.509 3.93246H43.9819V15.8199H39.764V3.93246H35.2368V0.355225H48.5066V3.93246H48.509Z" fill="white"/>
    <path d="M59.7492 13.0815H54.8479L53.8976 15.8224H49.1958L55.025 0.355225H59.5522L65.4038 15.8224H60.7021L59.7492 13.0815ZM58.4896 9.50176L57.2973 6.09927L56.105 9.50176H58.4896Z" fill="white"/>
    <path d="M80.9455 11.2267C80.9455 13.9227 79.1571 15.8224 75.0739 15.8224H68.5164V0.355225H74.8295C78.1644 0.355225 79.9503 2.05772 79.9503 4.61895C79.9503 5.50264 79.5961 6.78326 78.5161 7.57959C80.3045 8.28605 80.9455 9.8113 80.9455 11.2267ZM72.7317 3.93246V6.05433H74.8519C75.8022 6.05433 76.2437 5.59002 76.2437 4.99339C76.2437 4.39677 75.8022 3.93246 74.8519 3.93246H72.7317ZM77.1492 10.9371C77.1492 10.2082 76.553 9.63406 75.4705 9.63406H72.7317V12.2402H75.4705C76.553 12.2427 77.1492 11.6461 77.1492 10.9371Z" fill="white"/>
</svg>